<svg width="32" height="23" viewBox="0 0 32 23" fill="none" xmlns="http://www.w3.org/2000/svg">
<path fill-rule="evenodd" clip-rule="evenodd" d="M11.4113 16.1733C8.40348 16.1733 9.02317 18.5366 5.96856 21.6229C2.91395 24.7092 -1.77905 20.0103 1.27556 16.924C4.33018 13.8377 6.86626 14.4822 6.86626 11.4744C6.86626 8.46654 4.33018 9.08324 1.27556 6.02478C-1.77905 2.96633 2.91395 -1.73257 5.96856 1.32588C9.02317 4.38434 8.40348 6.77549 11.4113 6.77549C14.4192 6.77549 15.4494 2.71966 16.8541 1.32588C18.2588 -0.0678925 21.0313 1.95273 18.9005 3.89555C16.7697 5.83838 15.9564 8.46654 15.9564 11.4744C15.9564 14.4822 17.2407 17.0869 18.9005 18.7488C20.5603 20.4107 18.3365 22.5718 16.8541 21.6229C15.3717 20.674 14.4192 16.1733 11.4113 16.1733Z" fill="white"/>
<path fill-rule="evenodd" clip-rule="evenodd" d="M24.3978 18.2175C28.2428 18.2175 31.3598 15.0446 31.3598 11.1307C31.3598 7.2167 28.2428 4.0438 24.3978 4.0438C20.5528 4.0438 17.4358 7.2167 17.4358 11.1307C17.4358 15.0446 20.5528 18.2175 24.3978 18.2175ZM24.3978 15.3863C26.7067 15.3863 28.5785 13.481 28.5785 11.1307C28.5785 8.78036 26.7067 6.87505 24.3978 6.87505C22.0889 6.87505 20.2172 8.78036 20.2172 11.1307C20.2172 13.481 22.0889 15.3863 24.3978 15.3863Z" fill="white"/>
<path d="M20.1848 20.3959C20.1848 19.5161 20.9376 18.8248 21.8141 18.8995L27.5199 19.3861C28.1185 19.4372 28.5785 19.938 28.5785 20.5388C28.5785 21.1619 28.085 21.673 27.4623 21.695L21.7394 21.8967C20.8898 21.9266 20.1848 21.246 20.1848 20.3959Z" fill="white"/>
</svg>
